# xmcd
#
# Track frame offsets:
#	150
#	16314
#	36447
#	57460
#	72817
#	86240
#	112023
#	143289
#	170588
#	194041
#	209851
#
# Disc length: 3024 seconds
#
# Revision: 1
# Processed by: cddbd v1.5.1PL0 Copyright (c) Steve Scherf et al.
# Submitted via: audiograbber 1.83.01
#
DISCID=aa0bce0b
DTITLE=Kumm - Angels&clowns
DYEAR=2005
DGENRE=Jazz
TTITLE0=hear myself
TTITLE1=butterflies
TTITLE2=angels&clowns
TTITLE3=million faces
TTITLE4=yellow fever
TTITLE5=morgana
TTITLE6=curse
TTITLE7=little blue
TTITLE8=red coffee
TTITLE9=find a way to please you
TTITLE10=dictionary
EXTD=
EXTT0=
EXTT1=
EXTT2=
EXTT3=
EXTT4=
EXTT5=
EXTT6=
EXTT7=
EXTT8=
EXTT9=
EXTT10=
PLAYORDER=
